<mxfile host="app.diagrams.net" modified="2022-12-10T14:57:22.323Z" agent="5.0 (Windows NT 10.0; Win64; x64) AppleWebKit/537.36 (KHTML, like Gecko) Chrome/107.0.0.0 Safari/537.36 Edg/107.0.1418.35" version="20.6.0" etag="JtiGf5iGgmXGNAqPoUUD" type="github">
  <diagram id="qLZ6cuhkYy0z-SAB9hcI" name="Page-1">
    <mxGraphModel dx="735" dy="446" grid="1" gridSize="10" guides="1" tooltips="1" connect="1" arrows="1" fold="1" page="1" pageScale="1" pageWidth="850" pageHeight="1100" math="0" shadow="0">
      <root>
        <mxCell id="0" />
        <mxCell id="1" parent="0" />
        <mxCell id="V6eCvAGBm_swu__jGL6y-1" value="" style="edgeStyle=orthogonalEdgeStyle;rounded=0;orthogonalLoop=1;jettySize=auto;html=1;" edge="1" parent="1" source="V6eCvAGBm_swu__jGL6y-2" target="V6eCvAGBm_swu__jGL6y-4">
          <mxGeometry relative="1" as="geometry" />
        </mxCell>
        <mxCell id="V6eCvAGBm_swu__jGL6y-2" value="Run a process in foreground" style="rounded=0;whiteSpace=wrap;html=1;labelBackgroundColor=none;fillColor=#99FF99;gradientColor=none;" vertex="1" parent="1">
          <mxGeometry x="300" y="80" width="120" height="60" as="geometry" />
        </mxCell>
        <mxCell id="V6eCvAGBm_swu__jGL6y-3" value="" style="edgeStyle=orthogonalEdgeStyle;rounded=0;orthogonalLoop=1;jettySize=auto;html=1;" edge="1" parent="1" source="V6eCvAGBm_swu__jGL6y-4" target="V6eCvAGBm_swu__jGL6y-7">
          <mxGeometry relative="1" as="geometry" />
        </mxCell>
        <mxCell id="V6eCvAGBm_swu__jGL6y-4" value="Press &#39;ctrl + z&#39; to suspend a foreground process" style="rounded=0;whiteSpace=wrap;html=1;" vertex="1" parent="1">
          <mxGeometry x="300" y="170" width="120" height="60" as="geometry" />
        </mxCell>
        <mxCell id="V6eCvAGBm_swu__jGL6y-5" value="" style="edgeStyle=orthogonalEdgeStyle;rounded=0;orthogonalLoop=1;jettySize=auto;html=1;" edge="1" parent="1" source="V6eCvAGBm_swu__jGL6y-7" target="V6eCvAGBm_swu__jGL6y-9">
          <mxGeometry relative="1" as="geometry" />
        </mxCell>
        <mxCell id="V6eCvAGBm_swu__jGL6y-6" value="" style="edgeStyle=orthogonalEdgeStyle;rounded=0;orthogonalLoop=1;jettySize=auto;html=1;" edge="1" parent="1" source="V6eCvAGBm_swu__jGL6y-7" target="V6eCvAGBm_swu__jGL6y-27">
          <mxGeometry relative="1" as="geometry" />
        </mxCell>
        <mxCell id="V6eCvAGBm_swu__jGL6y-7" value="Process suspended" style="rounded=0;whiteSpace=wrap;html=1;fillColor=#FF6666;" vertex="1" parent="1">
          <mxGeometry x="300" y="260" width="120" height="60" as="geometry" />
        </mxCell>
        <mxCell id="V6eCvAGBm_swu__jGL6y-8" value="" style="edgeStyle=orthogonalEdgeStyle;rounded=0;orthogonalLoop=1;jettySize=auto;html=1;" edge="1" parent="1" source="V6eCvAGBm_swu__jGL6y-9" target="V6eCvAGBm_swu__jGL6y-11">
          <mxGeometry relative="1" as="geometry" />
        </mxCell>
        <mxCell id="V6eCvAGBm_swu__jGL6y-9" value="Run &#39;fg %job_no&#39;" style="rounded=0;whiteSpace=wrap;html=1;" vertex="1" parent="1">
          <mxGeometry x="300" y="350" width="120" height="60" as="geometry" />
        </mxCell>
        <mxCell id="V6eCvAGBm_swu__jGL6y-10" value="" style="edgeStyle=orthogonalEdgeStyle;rounded=0;orthogonalLoop=1;jettySize=auto;html=1;" edge="1" parent="1" source="V6eCvAGBm_swu__jGL6y-11" target="V6eCvAGBm_swu__jGL6y-19">
          <mxGeometry relative="1" as="geometry" />
        </mxCell>
        <mxCell id="V6eCvAGBm_swu__jGL6y-11" value="Process resumed in foreground" style="rounded=0;whiteSpace=wrap;html=1;fillColor=#99FF99;" vertex="1" parent="1">
          <mxGeometry x="300" y="440" width="120" height="60" as="geometry" />
        </mxCell>
        <mxCell id="V6eCvAGBm_swu__jGL6y-12" value="" style="edgeStyle=orthogonalEdgeStyle;rounded=0;orthogonalLoop=1;jettySize=auto;html=1;" edge="1" parent="1" source="V6eCvAGBm_swu__jGL6y-13" target="V6eCvAGBm_swu__jGL6y-15">
          <mxGeometry relative="1" as="geometry" />
        </mxCell>
        <mxCell id="V6eCvAGBm_swu__jGL6y-13" value="Run a process in background" style="rounded=0;whiteSpace=wrap;html=1;fillColor=#FFFF66;" vertex="1" parent="1">
          <mxGeometry x="620" y="80" width="120" height="60" as="geometry" />
        </mxCell>
        <mxCell id="V6eCvAGBm_swu__jGL6y-14" value="" style="edgeStyle=orthogonalEdgeStyle;rounded=0;orthogonalLoop=1;jettySize=auto;html=1;" edge="1" parent="1" source="V6eCvAGBm_swu__jGL6y-15" target="V6eCvAGBm_swu__jGL6y-17">
          <mxGeometry relative="1" as="geometry" />
        </mxCell>
        <mxCell id="V6eCvAGBm_swu__jGL6y-15" value="Run &#39;fg %job_no&#39;" style="rounded=0;whiteSpace=wrap;html=1;" vertex="1" parent="1">
          <mxGeometry x="620" y="170" width="120" height="60" as="geometry" />
        </mxCell>
        <mxCell id="V6eCvAGBm_swu__jGL6y-16" style="edgeStyle=orthogonalEdgeStyle;rounded=0;orthogonalLoop=1;jettySize=auto;html=1;exitX=0.5;exitY=1;exitDx=0;exitDy=0;entryX=0.5;entryY=0;entryDx=0;entryDy=0;" edge="1" parent="1" source="V6eCvAGBm_swu__jGL6y-17" target="V6eCvAGBm_swu__jGL6y-25">
          <mxGeometry relative="1" as="geometry" />
        </mxCell>
        <mxCell id="V6eCvAGBm_swu__jGL6y-17" value="Process brought to foreground" style="rounded=0;whiteSpace=wrap;html=1;fillColor=#99FF99;" vertex="1" parent="1">
          <mxGeometry x="620" y="260" width="120" height="60" as="geometry" />
        </mxCell>
        <mxCell id="V6eCvAGBm_swu__jGL6y-18" value="" style="edgeStyle=orthogonalEdgeStyle;rounded=0;orthogonalLoop=1;jettySize=auto;html=1;" edge="1" parent="1" source="V6eCvAGBm_swu__jGL6y-19" target="V6eCvAGBm_swu__jGL6y-23">
          <mxGeometry relative="1" as="geometry" />
        </mxCell>
        <mxCell id="V6eCvAGBm_swu__jGL6y-19" value="Press &#39;ctrl + c&#39; to kill the foreground process" style="rounded=0;whiteSpace=wrap;html=1;" vertex="1" parent="1">
          <mxGeometry x="300" y="530" width="120" height="60" as="geometry" />
        </mxCell>
        <mxCell id="V6eCvAGBm_swu__jGL6y-20" style="edgeStyle=orthogonalEdgeStyle;rounded=0;orthogonalLoop=1;jettySize=auto;html=1;exitX=0;exitY=0.5;exitDx=0;exitDy=0;" edge="1" parent="1" source="V6eCvAGBm_swu__jGL6y-22" target="V6eCvAGBm_swu__jGL6y-2">
          <mxGeometry relative="1" as="geometry" />
        </mxCell>
        <mxCell id="V6eCvAGBm_swu__jGL6y-21" style="edgeStyle=orthogonalEdgeStyle;rounded=0;orthogonalLoop=1;jettySize=auto;html=1;exitX=1;exitY=0.5;exitDx=0;exitDy=0;" edge="1" parent="1" source="V6eCvAGBm_swu__jGL6y-22" target="V6eCvAGBm_swu__jGL6y-13">
          <mxGeometry relative="1" as="geometry" />
        </mxCell>
        <mxCell id="V6eCvAGBm_swu__jGL6y-22" value="Start" style="ellipse;whiteSpace=wrap;html=1;rounded=0;" vertex="1" parent="1">
          <mxGeometry x="460" y="10" width="120" height="60" as="geometry" />
        </mxCell>
        <mxCell id="V6eCvAGBm_swu__jGL6y-23" value="End" style="ellipse;whiteSpace=wrap;html=1;rounded=0;" vertex="1" parent="1">
          <mxGeometry x="460" y="530" width="120" height="60" as="geometry" />
        </mxCell>
        <mxCell id="V6eCvAGBm_swu__jGL6y-24" style="edgeStyle=orthogonalEdgeStyle;rounded=0;orthogonalLoop=1;jettySize=auto;html=1;exitX=0.5;exitY=1;exitDx=0;exitDy=0;entryX=1;entryY=0.5;entryDx=0;entryDy=0;" edge="1" parent="1" source="V6eCvAGBm_swu__jGL6y-25" target="V6eCvAGBm_swu__jGL6y-23">
          <mxGeometry relative="1" as="geometry">
            <Array as="points">
              <mxPoint x="680" y="560" />
            </Array>
          </mxGeometry>
        </mxCell>
        <mxCell id="V6eCvAGBm_swu__jGL6y-25" value="Press &#39;ctrl + c&#39; to kill the foreground process" style="rounded=0;whiteSpace=wrap;html=1;" vertex="1" parent="1">
          <mxGeometry x="620" y="350" width="120" height="60" as="geometry" />
        </mxCell>
        <mxCell id="V6eCvAGBm_swu__jGL6y-26" value="" style="edgeStyle=orthogonalEdgeStyle;rounded=0;orthogonalLoop=1;jettySize=auto;html=1;" edge="1" parent="1" source="V6eCvAGBm_swu__jGL6y-27" target="V6eCvAGBm_swu__jGL6y-29">
          <mxGeometry relative="1" as="geometry" />
        </mxCell>
        <mxCell id="V6eCvAGBm_swu__jGL6y-27" value="Run &#39;bg %job_no&#39;" style="rounded=0;whiteSpace=wrap;html=1;" vertex="1" parent="1">
          <mxGeometry x="460" y="260" width="120" height="60" as="geometry" />
        </mxCell>
        <mxCell id="V6eCvAGBm_swu__jGL6y-28" value="" style="edgeStyle=orthogonalEdgeStyle;rounded=0;orthogonalLoop=1;jettySize=auto;html=1;" edge="1" parent="1" source="V6eCvAGBm_swu__jGL6y-29" target="V6eCvAGBm_swu__jGL6y-31">
          <mxGeometry relative="1" as="geometry" />
        </mxCell>
        <mxCell id="V6eCvAGBm_swu__jGL6y-29" value="Process resumed in background" style="rounded=0;whiteSpace=wrap;html=1;fillColor=#FFFF66;" vertex="1" parent="1">
          <mxGeometry x="460" y="350" width="120" height="60" as="geometry" />
        </mxCell>
        <mxCell id="V6eCvAGBm_swu__jGL6y-30" style="edgeStyle=orthogonalEdgeStyle;rounded=0;orthogonalLoop=1;jettySize=auto;html=1;exitX=0.5;exitY=1;exitDx=0;exitDy=0;entryX=0.5;entryY=0;entryDx=0;entryDy=0;" edge="1" parent="1" source="V6eCvAGBm_swu__jGL6y-31" target="V6eCvAGBm_swu__jGL6y-23">
          <mxGeometry relative="1" as="geometry">
            <mxPoint x="560" y="520" as="targetPoint" />
          </mxGeometry>
        </mxCell>
        <mxCell id="V6eCvAGBm_swu__jGL6y-31" value="Run &#39;kill %job_no&#39;" style="rounded=0;whiteSpace=wrap;html=1;" vertex="1" parent="1">
          <mxGeometry x="460" y="440" width="120" height="60" as="geometry" />
        </mxCell>
      </root>
    </mxGraphModel>
  </diagram>
</mxfile>
